<?xml version="1.0" encoding="UTF-8"?><svg id="Layer_2" xmlns="http://www.w3.org/2000/svg" viewBox="0 0 48 48"><defs><style>.cls-1{fill:#fcbd49;}.cls-2{fill:#d4d4d4;}.cls-3{fill:none;}</style></defs><g id="Layer_1-2"><rect class="cls-3" width="48" height="48"/><path class="cls-1" d="M22.5,6c-.6,3.27-.42,6.48,.55,9.63s2.63,5.91,5,8.28,5.13,4.04,8.28,5.03,6.38,1.18,9.68,.58c-.87,4.8-3.17,8.75-6.9,11.85s-8.03,4.65-12.9,4.65h-.4c1.17-.8,2.08-1.82,2.73-3.05s.98-2.55,.98-3.95c0-2.2-.7-4.08-2.1-5.65s-3.15-2.48-5.25-2.75c-1-1.87-2.4-3.35-4.2-4.45s-3.78-1.65-5.95-1.65c-1.07,0-2.11,.14-3.13,.43s-1.98,.71-2.88,1.28v-.4c0-4.87,1.55-9.16,4.65-12.88s7.05-6.03,11.85-6.93Z"/><path class="cls-2" d="M12,27.5c1.7,0,3.26,.46,4.68,1.38s2.46,2.18,3.13,3.78l.35,.85h.95c1.5,0,2.78,.53,3.83,1.6s1.58,2.37,1.58,3.9-.54,2.83-1.63,3.9c-1.08,1.07-2.38,1.6-3.88,1.6H12c-2.33,0-4.33-.83-6-2.5-1.67-1.67-2.5-3.67-2.5-6s.83-4.38,2.5-6.03c1.67-1.65,3.67-2.48,6-2.48Z"/></g></svg>