<?xml version="1.0" encoding="UTF-8"?><svg id="Layer_2" xmlns="http://www.w3.org/2000/svg" viewBox="0 0 48 48"><defs><style>.cls-1{fill:#fcbd49;}.cls-2{fill:none;}.cls-3{fill:#d4d4d4;}</style></defs><g id="Layer_1-2"><rect class="cls-2" width="48" height="48"/><path class="cls-1" d="M27.9,35.35c0-2.03-.68-3.78-2.05-5.23-1.37-1.45-3.05-2.18-5.05-2.18-.67-1.87-1.8-3.35-3.4-4.45s-3.4-1.6-5.4-1.5c.47-2.93,1.84-5.33,4.13-7.2s4.91-2.8,7.88-2.8c3.33,0,6.17,1.17,8.5,3.5s3.5,5.17,3.5,8.5c0,2.6-.74,4.93-2.23,7s-3.44,3.52-5.88,4.35Zm-5.4-25.85V2h3v7.5h-3Zm12.8,5.3l-2.1-2.15,5.3-5.3,2.1,2.15-5.3,5.3Zm3.2,10.7v-3h7.5v3h-7.5Zm.05,15.1l-5.3-5.3,2.15-2.15,5.3,5.3-2.15,2.15ZM12.7,14.8l-5.3-5.3,2.1-2.1,5.3,5.3-2.1,2.1Z"/><path class="cls-3" d="M12,39c-1.93,0-3.58-.68-4.95-2.05-1.37-1.37-2.05-3.02-2.05-4.95s.68-3.58,2.05-4.95c1.37-1.37,3.02-2.05,4.95-2.05,1.3,0,2.49,.35,3.58,1.05s1.88,1.65,2.38,2.85l.9,2.05h2.2c1.1,0,2.03,.4,2.8,1.2s1.15,1.75,1.15,2.85-.39,2.04-1.18,2.83-1.73,1.18-2.83,1.18H12Z"/></g></svg>