<svg xmlns="http://www.w3.org/2000/svg" viewBox="0 0 24 24">
    <defs>
        <style>.cls-1{fill:none;}.cls-2{opacity:0.2;}</style>
    </defs>
    <g id="Layer_2">
        <g id="Layer_1-2" >
            <path class="cls-1" d="M0,0H24V24H0Z" fill="none"/>
            <path class="cls-2"
                  d="M12,22a10,10,0,1,1,7.32-3.18A10,10,0,0,1,12,22ZM12,4.39a7.61,7.61,0,0,0,0,15.22A7.62,7.62,0,0,0,19.61,12,7.61,7.61,0,0,0,12,4.39Z"/>
            <path d="M19.32,18.83l-1.76-1.64A7.61,7.61,0,0,0,12,4.39V2a10,10,0,0,1,7.32,16.84Z"/>
        </g>
    </g>
</svg>