<?xml version="1.0" encoding="UTF-8"?><svg id="Layer_2" xmlns="http://www.w3.org/2000/svg" viewBox="0 0 48 48"><defs><style>.cls-1{fill:#fcbd49;}.cls-2{fill:#d4d4d4;}.cls-3{fill:none;}</style></defs><g id="Layer_1-2"><path class="cls-1" d="M23.75,48l4.85-5.5-4-2,5.65-6.5h4l-4.85,5.5,4,2-5.65,6.5h-4Zm-12,0l4.85-5.5-4-2,5.65-6.5h4l-4.85,5.5,4,2-5.65,6.5h-4Z"/><path class="cls-2" d="M14.5,31c-2.9,0-5.38-1.03-7.43-3.08s-3.08-4.53-3.08-7.43c0-2.63,.94-4.98,2.83-7.05,1.88-2.07,4.23-3.2,7.03-3.4,1.07-1.87,2.48-3.34,4.23-4.43s3.73-1.63,5.93-1.63c3.03,0,5.58,.96,7.63,2.88,2.05,1.92,3.31,4.29,3.78,7.13,2.63,.13,4.73,1.03,6.28,2.68s2.33,3.59,2.33,5.83-.83,4.33-2.48,6-3.66,2.5-6.03,2.5H14.5Z"/><rect class="cls-3" width="48" height="48"/></g></svg>